<?xml version="1.0" encoding="UTF-8"?>
<svg width="967px" height="445px" viewBox="0 0 967 445" version="1.1" xmlns="http://www.w3.org/2000/svg" xmlns:xlink="http://www.w3.org/1999/xlink">
    <!-- Generator: Sketch 52.5 (67469) - http://www.bohemiancoding.com/sketch -->
    <title>logo/light</title>
    <desc>Created with Sketch.</desc>
    <defs>
        <linearGradient x1="50%" y1="0%" x2="50%" y2="100%" id="linearGradient-1">
            <stop stop-color="#FFFFFF" stop-opacity="0.5" offset="0%"></stop>
            <stop stop-color="#000000" stop-opacity="0.5" offset="100%"></stop>
        </linearGradient>
        <path d="M236.642136,6.14213562 L438.857864,208.357864 C446.66835,216.16835 446.66835,228.83165 438.857864,236.642136 L236.642136,438.857864 C228.83165,446.66835 216.16835,446.66835 208.357864,438.857864 L6.14213562,236.642136 C-1.66835021,228.83165 -1.66835021,216.16835 6.14213562,208.357864 L208.357864,6.14213562 C216.16835,-1.66835021 228.83165,-1.66835021 236.642136,6.14213562 Z" id="path-2"></path>
        <path d="M140.375,256.34375 C133.447882,262.489614 125.960978,265.5625 117.914062,265.5625 C109.867147,265.5625 103.05732,263.947933 97.484375,260.71875 C89.7760031,256.187477 85.921875,248.609428 85.921875,237.984375 L85.921875,190.171875 L74.828125,190.171875 L74.828125,184.078125 L106.234375,184.078125 L106.234375,241.578125 C106.234375,252.567763 111.312449,258.0625 121.46875,258.0625 C128.500035,258.0625 134.802055,254.833366 140.375,248.375 L140.375,190.171875 L126.859375,190.171875 L126.859375,184.078125 L160.53125,184.078125 L160.53125,257.90625 L170.609375,257.90625 L170.609375,264 L140.375,264 L140.375,256.34375 Z M237.136071,190.171875 C228.646446,190.171875 220.964231,194.104127 214.089196,201.96875 L214.089196,257.90625 L228.307946,257.90625 L228.307946,264 L181.120446,264 L181.120446,257.90625 L193.776696,257.90625 L193.776696,190.171875 L181.042321,190.171875 L181.042321,184.078125 L214.089196,184.078125 L214.089196,194.078125 C221.901736,186.526004 230.833938,182.75 240.886071,182.75 C247.813189,182.75 253.958961,184.520816 259.323571,188.0625 C266.250689,192.645856 269.714196,199.93745 269.714196,209.9375 L269.714196,257.90625 L282.370446,257.90625 L282.370446,264 L235.182946,264 L235.182946,257.90625 L249.401696,257.90625 L249.401696,208.375 C249.401696,202.28122 248.763682,198.140636 247.487634,195.953125 C246.211586,193.765614 244.779309,192.255212 243.190759,191.421875 C241.602209,190.588538 239.584,190.171875 237.136071,190.171875 Z M287.881518,224 C287.881518,211.708272 291.787729,201.760455 299.600268,194.15625 C307.412807,186.552045 317.243438,182.75 329.092455,182.75 C340.941473,182.75 350.707,186.539025 358.38933,194.117188 C366.07166,201.69535 369.912768,211.643168 369.912768,223.960938 C369.912768,236.278707 366.097702,246.291628 358.467455,254 C350.837209,261.708372 341.058661,265.5625 329.131518,265.5625 C317.204375,265.5625 307.347703,261.708372 299.561205,254 C291.774708,246.291628 287.881518,236.291728 287.881518,224 Z M328.897143,259.078125 C339.418029,259.078125 345.589842,251.916738 347.412768,237.59375 C347.933604,233.322895 348.194018,228.739608 348.194018,223.84375 C348.194018,212.854112 346.94403,204.625027 344.444018,199.15625 C341.371086,192.593717 336.188846,189.3125 328.897143,189.3125 C318.376257,189.3125 312.204444,196.239514 310.381518,210.09375 C309.860682,214.312521 309.600268,218.895809 309.600268,223.84375 C309.600268,234.885472 310.850255,243.218722 313.350268,248.84375 C316.475284,255.666701 321.657523,259.078125 328.897143,259.078125 Z" id="path-3"></path>
    </defs>
    <g id="Branding" stroke="none" stroke-width="1" fill="none" fill-rule="evenodd">
        <g id="logo" transform="translate(-178.000000, -156.000000)">
            <g id="logo/light" transform="translate(170.000000, 148.000000)">
                <g id="Logo" transform="translate(8.000000, 8.000000)">
                    <g id="logo/symbol" fill-rule="nonzero">
                        <g id="Polygon">
                            <use fill="#D90429" xlink:href="#path-2"></use>
                            <use fill-opacity="0.5" fill="url(#linearGradient-1)" xlink:href="#path-2"></use>
                        </g>
                    </g>
                    <path d="M521.25,154.28125 C521.25,148.239553 524.010389,144.776046 529.53125,143.890625 C528.95833,142.640619 527.721364,141.572921 525.820312,140.6875 C523.919261,139.802079 521.770845,139.359375 519.375,139.359375 C514.895811,139.359375 511.848966,141.247377 510.234375,145.023438 C508.619784,148.799498 507.8125,154.619752 507.8125,162.484375 L507.8125,186.078125 L523.75,186.078125 L525.3125,192.171875 L507.734375,192.171875 L507.734375,259.90625 L524.140625,259.90625 L524.140625,266 L474.765625,266 L474.765625,259.90625 L487.421875,259.90625 L487.421875,192.171875 L474.765625,192.171875 L474.765625,186.078125 L487.421875,186.078125 L487.421875,166.3125 C487.421875,155.479112 490.130181,147.250028 495.546875,141.625 C500.963569,135.999972 508.177038,133.1875 517.1875,133.1875 C524.218785,133.1875 529.908832,135.010398 534.257812,138.65625 C538.606793,142.302102 540.78125,146.624975 540.78125,151.625 C540.78125,156.625025 538.671896,160.010408 534.453125,161.78125 C533.255202,162.250002 531.692718,162.484375 529.765625,162.484375 C527.838532,162.484375 525.937509,161.65105 524.0625,159.984375 C522.187491,158.3177 521.25,156.416677 521.25,154.28125 Z M567.278929,167.015625 C565.195585,169.098969 562.669568,170.140625 559.700804,170.140625 C556.732039,170.140625 554.179981,169.111989 552.044554,167.054688 C549.909126,164.997386 548.841429,162.822928 548.841429,160.53125 C548.841429,156.677064 549.883085,153.708344 551.966429,151.625 C554.049772,149.541656 556.60183,148.5 559.622679,148.5 C564.414369,148.5 567.721628,150.687478 569.544554,155.0625 C570.117473,156.36459 570.403929,157.770826 570.403929,159.28125 C570.403929,162.354182 569.362272,164.932281 567.278929,167.015625 Z M536.653929,259.90625 L549.310179,259.90625 L549.310179,192.171875 L537.747679,192.171875 L537.747679,186.078125 L570.013304,186.078125 L570.013304,259.90625 L582.669554,259.90625 L582.669554,266 L536.653929,266 L536.653929,259.90625 Z M645.807857,192.171875 C637.318231,192.171875 629.636017,196.104127 622.760982,203.96875 L622.760982,259.90625 L636.979732,259.90625 L636.979732,266 L589.792232,266 L589.792232,259.90625 L602.448482,259.90625 L602.448482,192.171875 L589.714107,192.171875 L589.714107,186.078125 L622.760982,186.078125 L622.760982,196.078125 C630.573521,188.526004 639.505724,184.75 649.557857,184.75 C656.484975,184.75 662.630747,186.520816 667.995357,190.0625 C674.922475,194.645856 678.385982,201.93745 678.385982,211.9375 L678.385982,259.90625 L691.042232,259.90625 L691.042232,266 L643.854732,266 L643.854732,259.90625 L658.073482,259.90625 L658.073482,210.375 C658.073482,204.28122 657.435468,200.140636 656.15942,197.953125 C654.883372,195.765614 653.451094,194.255212 651.862545,193.421875 C650.273995,192.588538 648.255786,192.171875 645.807857,192.171875 Z M751.836786,257.171875 C745.795089,264.098993 737.696211,267.5625 727.539911,267.5625 C719.831539,267.5625 713.19098,265.414084 707.618036,261.117188 C702.045091,256.820291 699.258661,251.195347 699.258661,244.242188 C699.258661,237.289028 701.993008,231.820332 707.461786,227.835938 C712.930563,223.851543 719.974763,221.859375 728.594598,221.859375 C737.214433,221.859375 744.414882,224.020812 750.196161,228.34375 L750.196161,209.75 C750.196161,203.447885 749.414919,199.177095 747.852411,196.9375 C746.289903,194.697905 744.453984,193.135421 742.344598,192.25 C740.235213,191.364579 737.904507,190.921875 735.352411,190.921875 C731.341974,190.921875 727.956591,191.3776 725.196161,192.289062 C722.43573,193.200525 720.58679,194.124995 719.649286,195.0625 C722.045131,195.79167 723.894071,197.614569 725.196161,200.53125 C725.612829,201.572922 725.821161,202.822909 725.821161,204.28125 C725.821161,207.145848 724.779504,209.528636 722.696161,211.429688 C720.612817,213.330739 718.529504,214.28125 716.446161,214.28125 C712.800309,214.28125 709.961796,213.317718 707.930536,211.390625 C705.899276,209.463532 704.883661,207.145847 704.883661,204.4375 C704.883661,201.729153 705.378447,199.502613 706.368036,197.757812 C707.357624,196.013012 708.685736,194.437507 710.352411,193.03125 C713.52951,190.374987 717.526866,188.343757 722.344598,186.9375 C727.162331,185.531243 731.680515,184.828125 735.899286,184.828125 C747.618094,184.828125 756.289883,187.197893 761.914911,191.9375 C767.539939,196.677107 770.352411,203.291624 770.352411,211.78125 L770.352411,253.421875 C770.352411,257.744813 771.420108,259.90625 773.555536,259.90625 C775.690963,259.90625 777.748234,258.60418 779.727411,256 L783.789911,259.359375 C780.248226,264.723985 774.467034,267.40625 766.446161,267.40625 C763.633647,267.40625 760.782113,266.520842 757.891473,264.75 C755.000834,262.979158 752.982625,260.453141 751.836786,257.171875 Z M750.430536,235.296875 C746.00343,230.973937 741.159729,228.8125 735.899286,228.8125 C730.638843,228.8125 726.680549,230.049467 724.024286,232.523438 C721.368022,234.997408 720.039911,238.968723 720.039911,244.4375 C720.039911,252.510457 722.878424,257.406241 728.555536,259.125 C730.170127,259.645836 731.810736,259.90625 733.477411,259.90625 C738.217018,259.90625 742.748222,258.083352 747.071161,254.4375 C748.321167,253.343745 749.440947,252.171881 750.430536,250.921875 L750.430536,235.296875 Z M845.990714,192.171875 C837.501089,192.171875 829.818874,196.104127 822.943839,203.96875 L822.943839,259.90625 L837.162589,259.90625 L837.162589,266 L789.975089,266 L789.975089,259.90625 L802.631339,259.90625 L802.631339,192.171875 L789.896964,192.171875 L789.896964,186.078125 L822.943839,186.078125 L822.943839,196.078125 C830.756378,188.526004 839.688581,184.75 849.740714,184.75 C856.667832,184.75 862.813604,186.520816 868.178214,190.0625 C875.105332,194.645856 878.568839,201.93745 878.568839,211.9375 L878.568839,259.90625 L891.225089,259.90625 L891.225089,266 L844.037589,266 L844.037589,259.90625 L858.256339,259.90625 L858.256339,210.375 C858.256339,204.28122 857.618325,200.140636 856.342277,197.953125 C855.066229,195.765614 853.633951,194.255212 852.045402,193.421875 C850.456852,192.588538 848.438643,192.171875 845.990714,192.171875 Z M913.113393,260.296875 C911.446718,261.442714 910.509227,263.343737 910.300893,266 L902.800893,266 L903.113393,242.484375 L910.300893,242.484375 C910.300893,246.494812 912.813889,250.609354 917.839955,254.828125 C922.866022,259.046896 929.233146,261.15625 936.941518,261.15625 C944.64989,261.15625 949.545674,258.916689 951.629018,254.4375 C952.201937,253.13541 952.488393,251.781257 952.488393,250.375 C952.488393,247.77082 950.704557,245.375011 947.13683,243.1875 C943.569104,240.999989 937.709788,238.447931 929.558705,235.53125 C921.407623,232.614569 914.988416,228.851586 910.300893,224.242188 C905.613369,219.632789 903.269643,214.007846 903.269643,207.367188 C903.269643,200.726529 906.238363,195.296896 912.175893,191.078125 C918.113423,186.859354 924.975333,184.75 932.76183,184.75 C940.548328,184.75 946.811286,186.677064 951.550893,190.53125 C953.009233,190.062498 954.155055,188.916676 954.988393,187.09375 C955.300894,186.468747 955.457143,185.713546 955.457143,184.828125 L961.394643,184.828125 L961.394643,206.625 L954.519643,206.625 C953.634222,201.729142 951.277474,197.914076 947.44933,195.179688 C943.621186,192.445299 939.129044,191.078125 933.972768,191.078125 C928.816492,191.078125 924.845178,192.080719 922.058705,194.085938 C919.272233,196.091156 917.879018,198.526027 917.879018,201.390625 C917.879018,204.255223 919.480564,206.872384 922.683705,209.242188 C925.886846,211.611991 930.418051,213.825511 936.277455,215.882812 C942.13686,217.940114 946.733168,219.749992 950.066518,221.3125 C960.743655,226.468776 966.082143,233.929639 966.082143,243.695312 C966.082143,253.460986 960.613448,260.55727 949.675893,264.984375 C945.405038,266.703134 941.056123,267.5625 936.629018,267.5625 C927.410222,267.5625 919.571758,265.140649 913.113393,260.296875 Z" id="finans" fill="#232434"></path>
                    <g id="uno">
                        <use fill="#D90429" xlink:href="#path-3"></use>
                        <use fill="#FFFFFF" xlink:href="#path-3"></use>
                    </g>
                </g>
            </g>
        </g>
    </g>
</svg>